<svg width="453" height="438" viewBox="0 0 453 438" fill="black" xmlns="http://www.w3.org/2000/svg">
<path d="M223.962 43.9763C222.09 47.9797 217.201 56.185 218.67 60.6507C220.635 66.6261 234.66 73.0244 239.962 75.9763L228.962 42.9763C254.164 40.7593 253.828 3.14588 228.962 0.162176C211.102 -1.98072 198.94 17.5484 207.379 32.9755C210.928 39.4617 217.236 42.026 223.962 43.9763ZM211.962 74.9763L206.962 90.9763L258.962 124.976C256.471 117.333 254.143 106.594 249.26 100.16C241.871 90.4263 222.957 80.1777 211.962 74.9763ZM41.962 116.976C34.6833 92.4703 -1.66305 101.403 0.0592408 125.976C2.01642 153.901 41.6617 150.323 43.962 123.976C72.0124 123.976 99.209 133.292 114.086 158.976C120.234 169.589 123.901 181.661 123.961 193.976C123.984 198.678 122.91 204.365 128.981 204.917C133.501 205.329 143.611 206.602 147.463 203.948C151.481 201.181 153.023 192.358 154.643 187.976C159.582 174.62 164.705 161.332 169.643 147.976C171.425 143.158 175.872 136.067 173.489 130.976C158.116 98.1393 109.064 89.1175 77.962 99.0053C65.0541 103.108 54.3377 111.796 41.962 116.976ZM408.962 123.976C410.174 150.438 448.014 153.574 452.494 126.976C456.945 100.542 419.946 94.2783 409.962 116.976C375.876 96.8743 339.394 85.0843 302.962 107.791C294.702 112.939 281.953 122.228 278.91 131.976C277.377 136.886 281.327 143.456 283.012 147.976L298.012 187.976C299.667 192.415 301.232 201.204 305.38 203.948C309.295 206.538 320.383 205.598 324.903 204.828C330.09 203.944 328.96 197.979 328.962 193.976C328.966 182.516 331.663 170.989 337.391 160.976C352.703 134.208 379.488 123.976 408.962 123.976ZM200.962 103.976L195.962 119.976L276.962 172.976L267.26 148.302L245.962 133.309L200.962 103.976ZM189.962 132.976L184.962 148.976L240.962 186.309L267.962 203.466L288.962 203.976C284.358 192.383 270.921 186.615 260.962 179.976C237.549 164.367 214.541 146.66 189.962 132.976ZM178.962 162.976L171.962 181.976L205.962 203.466L240.962 203.976L205.962 179.973L178.962 162.976ZM166.962 195.976L163.962 203.976H178.962L166.962 195.976ZM123.962 218.976V233.976H328.962V218.976H123.962ZM123.962 247.976C123.962 289.35 115.854 340.363 133.274 378.976C165.566 450.556 268.175 457.505 311.443 392.976C338.649 352.401 328.962 294.376 328.962 247.976H123.962ZM111 298V257C91.2396 262.869 91.2396 292.131 111 298ZM341 256V296C360.349 289.821 360.349 262.179 341 256ZM174.962 262.976L175 278L189.962 277.977V291.977H174.962V306.977H160.962V291.977H145.962V277.977L161 278L160.962 262.977L174.962 262.976ZM291.962 262.977V277.977H306.962V291.977H291.962V306.977H277.962L278.271 292.201L262.962 291.977V277.977L278.021 277.977L277.962 262.977H291.962ZM226.962 299.688C264.343 300.308 263.194 358.757 225.962 357.718C188.14 356.662 189.329 299.063 226.962 299.688ZM222.962 314.511C204.648 318.874 211.605 346.772 229.962 342.583C248.104 338.442 241.167 310.173 222.962 314.511ZM159.962 329.357C193.615 322.504 190.694 369.358 221.962 371.884C235.443 372.972 247.202 367.65 255.572 356.977C260.061 351.252 261.422 343.795 265.751 338.017C272.555 328.938 286.789 326.294 296.961 330.882C313.377 338.285 313.014 356.851 306.65 370.977C295.312 396.147 273.059 415.243 245.962 421.312C212.057 428.905 176.679 415.52 155.86 387.977C144.074 372.384 129.745 335.51 159.962 329.357ZM163.002 343.631C144.886 349.51 166.297 378.966 173.001 385.977C192.73 406.61 222.791 414.138 249.962 405.228C268.228 399.238 283.907 385.299 292.177 367.977C296.206 359.538 300.766 341.819 284.962 343.206C274.59 344.117 272.275 358.879 267.038 365.977C257.195 379.317 238.85 388.876 221.962 386.688C207.321 384.791 193.587 377.122 185.005 364.977C179.449 357.114 176.282 339.32 163.002 343.631Z"/>
</svg>
