<?xml version="1.0" encoding="UTF-8"?>
<!-- Created with Inkscape (http://www.inkscape.org/) -->
<svg width="200" height="200" version="1.1" viewBox="0 0 52.917 52.917" xmlns="http://www.w3.org/2000/svg">
 <g transform="translate(-71.44 -96.86)">
  <path d="m97.614 102.06c-0.21874 0.48442-0.79446 1.5954-0.6228 2.1358 0.22961 0.72304 1.8684 1.4972 2.488 1.8544l-1.2853-3.9931c2.9448-0.26826 2.9056-4.8196 0-5.1806-2.0869-0.2593-3.508 2.1038-2.522 3.9705 0.4147 0.78484 1.1562 0.977 1.9421 1.213m-1.4066 3.8692-0.58424 1.936 6.0761 4.1141c-0.29108-0.92482-0.5631-2.2243-1.1337-3.0028-0.86339-1.1778-3.0735-2.4179-4.3582-3.0473m-19.864 5.0821c-0.85051-2.9653-5.0975-1.8844-4.8963 1.089 0.2287 3.379 4.8612 2.946 5.13-0.242 3.2777 0 6.4556 1.1272 8.1939 4.2351 0.71839 1.2842 1.1469 2.7449 1.1539 4.2351 0.0027 0.56896-0.12281 1.2571 0.58658 1.3239 0.52816 0.0499 1.7095 0.20389 2.1596-0.11725 0.4695-0.33481 0.64968-1.4024 0.83898-1.9326 0.57712-1.6161 1.1757-3.224 1.7527-4.8401 0.20822-0.58298 0.72785-1.441 0.4494-2.057-1.7963-3.9734-7.528-5.065-11.162-3.8686-1.5083 0.49648-2.7605 1.5478-4.2066 2.1745m42.884 0.84702c0.14161 3.202 4.5632 3.5814 5.0867 0.363 0.52009-3.1986-3.8032-3.9565-4.9698-1.21-3.9829-2.4324-8.2458-3.859-12.503-1.1114-0.96517 0.62292-2.4549 1.7469-2.8104 2.9264-0.17913 0.59412 0.28242 1.3891 0.47932 1.936l1.7527 4.8401c0.19338 0.53713 0.37625 1.6006 0.86094 1.9326 0.45746 0.3134 1.7531 0.19966 2.2812 0.10648 0.6061-0.10696 0.47406-0.82874 0.47429-1.3131 4.5e-4 -1.3867 0.31562-2.7815 0.98492-3.9931 1.7892-3.239 4.919-4.4771 8.363-4.4771m-24.305-2.42-0.58424 1.936 9.4648 6.4131-1.1337-2.9856-2.4886-1.8142-5.2582-3.5494m-1.2853 3.5091-0.58424 1.936 6.5435 4.5174 3.1549 2.076 2.4538 0.0617c-0.53796-1.4028-2.1081-2.1007-3.2718-2.9041-2.7358-1.8887-5.4242-4.0313-8.2963-5.6871m-1.2853 3.6301-0.81794 2.299 3.9729 2.6004 4.0897 0.0617-4.0897-2.9044-3.1549-2.0567m-1.4022 3.9931-0.35055 0.96802h1.7527l-1.4022-0.96802m-5.0245 2.7831v1.815h23.954v-1.815h-23.954m0 3.5091c0 5.0064-0.94741 11.179 1.0881 15.851 3.7733 8.6614 15.763 9.5022 20.819 1.694 3.179-4.9097 2.0471-11.931 2.0471-17.545h-23.954m-1.5146 6.053v-4.9611c-2.309 0.71016-2.309 4.2509 0 4.9611m26.875-5.0821v4.8401c2.2609-0.74767 2.2609-4.0924 0-4.8401m-19.401 0.84414 0.0044 1.8179 1.7483-3e-3v1.694h-1.7527v1.815h-1.6359v-1.815h-1.7527v-1.694l1.7572 3e-3 -0.0044-1.8178h1.6359m13.671 0v1.815h1.7527v1.694h-1.7527v1.815h-1.6359l0.0361-1.788-1.7888-0.027v-1.694l1.7596 1e-5 -7e-3 -1.815h1.6359m-7.5952 4.4421c4.3679 0.075 4.2337 7.1475-0.11685 7.0218-4.4195-0.12778-4.2805-7.0974 0.11685-7.0218m-0.4674 1.7936c-2.14 0.52794-1.3271 3.9037 0.81794 3.3968 2.1199-0.50107 1.3093-3.9217-0.81794-3.3968m-7.3615 1.7964c3.9323-0.82923 3.591 4.8402 7.2446 5.1459 1.5752 0.13166 2.9493-0.51232 3.9273-1.8038 0.52455-0.69274 0.68357-1.595 1.1894-2.2942 0.79504-1.0986 2.4583-1.4185 3.6468-0.86336 1.9182 0.89578 1.8758 3.1423 1.1322 4.8516-1.3248 3.0456-3.9251 5.3563-7.0913 6.0907-3.9618 0.91877-8.0956-0.70084-10.528-4.0336-1.3772-1.8868-3.0515-6.3486 0.47931-7.0932m0.35522 1.7272c-2.1168 0.71137 0.38502 4.2756 1.1684 5.124 2.3053 2.4966 5.8179 3.4076 8.9928 2.3294 2.1344-0.72481 3.9664-2.4115 4.9328-4.5075 0.47079-1.0212 1.0036-3.1652-0.84306-2.9974-1.212 0.11023-1.4825 1.8965-2.0944 2.7553-1.1502 1.6142-3.2937 2.7708-5.2671 2.5061-1.7108-0.22954-3.3156-1.1575-4.3184-2.6271-0.64921-0.95144-1.0193-3.1046-2.571-2.5829z"/>
 </g>
</svg>
