<svg width="18" height="18" viewBox="0 0 18 18" fill="black" xmlns="http://www.w3.org/2000/svg">
<g clip-path="url(#clip0_5_422)">
<path d="M8.58102 9.72543C9.87815 9.72543 10.6764 7.89734 10.6764 6.74275C10.6764 5.78059 10.1775 4.626 9.17969 4.626C7.88256 4.626 7.08433 6.4541 7.08433 7.60869C7.08433 8.57084 7.58322 9.72543 8.58102 9.72543ZM4.7894 9.72543C5.7872 9.72543 6.28609 8.57084 6.28609 7.60869C6.28609 6.35788 5.48786 4.52979 4.19073 4.52979C3.19294 4.52979 2.69404 5.68437 2.69404 6.64653C2.59426 7.89733 3.39249 9.72543 4.7894 9.72543ZM12.1731 8.76328C10.8759 8.76328 9.97793 10.4952 9.97793 11.746C9.97793 12.6119 10.377 13.4778 11.2751 13.4778C12.5722 13.4778 13.4702 11.746 13.4702 10.4952C13.4702 9.62922 12.9713 8.76328 12.1731 8.76328ZM3.49227 11.746C3.49227 10.4952 2.49448 8.76328 1.29713 8.76328C0.399117 8.76328 0 9.62922 0 10.4952C0 11.746 0.997793 13.4778 2.19514 13.4778C3.09316 13.4778 3.49227 12.6119 3.49227 11.746ZM6.68521 11.5535C4.68962 11.5535 1.99559 14.6324 1.99559 16.7492C1.99559 17.7113 2.69404 18 3.49227 18C4.68963 18 5.58764 17.2303 6.68521 17.2303C7.683 17.2303 8.58102 18 9.67859 18C10.4768 18 11.3748 17.8076 11.3748 16.7492C11.3748 14.6324 8.68079 11.5535 6.68521 11.5535Z"/>
<path fill-rule="evenodd" clip-rule="evenodd" d="M14.5 0C14.6857 0 14.8637 0.0737499 14.995 0.205025C15.1263 0.336301 15.2 0.514348 15.2 0.7V2.8H17.3C17.4857 2.8 17.6637 2.87375 17.795 3.00503C17.9263 3.1363 18 3.31435 18 3.5C18 3.68565 17.9263 3.8637 17.795 3.99497C17.6637 4.12625 17.4857 4.2 17.3 4.2H15.2V6.3C15.2 6.48565 15.1263 6.6637 14.995 6.79498C14.8637 6.92625 14.6857 7 14.5 7C14.3143 7 14.1363 6.92625 14.005 6.79498C13.8737 6.6637 13.8 6.48565 13.8 6.3V4.2H11.7C11.5143 4.2 11.3363 4.12625 11.205 3.99497C11.0737 3.8637 11 3.68565 11 3.5C11 3.31435 11.0737 3.1363 11.205 3.00503C11.3363 2.87375 11.5143 2.8 11.7 2.8H13.8V0.7C13.8 0.514348 13.8737 0.336301 14.005 0.205025C14.1363 0.0737499 14.3143 0 14.5 0Z"/>
</g>
<defs>
<clipPath id="clip0_5_422">
<rect width="18" height="18" fill="white"/>
</clipPath>
</defs>
</svg>
