<svg width="18" height="18" viewBox="0 0 18 18" fill="black" xmlns="http://www.w3.org/2000/svg">
<g clip-path="url(#clip0_5_430)">
<path d="M1.125 18.0298C1.125 18.0298 0 18.0298 0 16.9048C0 15.7798 1.125 12.4048 6.75 12.4048C12.375 12.4048 13.5 15.7798 13.5 16.9048C13.5 18.0298 12.375 18.0298 12.375 18.0298H1.125ZM6.75 11.2798C7.64511 11.2798 8.50355 10.9242 9.13649 10.2913C9.76942 9.65834 10.125 8.79989 10.125 7.90479C10.125 7.00968 9.76942 6.15124 9.13649 5.5183C8.50355 4.88536 7.64511 4.52979 6.75 4.52979C5.85489 4.52979 4.99645 4.88536 4.36351 5.5183C3.73058 6.15124 3.375 7.00968 3.375 7.90479C3.375 8.79989 3.73058 9.65834 4.36351 10.2913C4.99645 10.9242 5.85489 11.2798 6.75 11.2798Z"/>
<path fill-rule="evenodd" clip-rule="evenodd" d="M14.5 0C14.6857 0 14.8637 0.0737499 14.995 0.205025C15.1263 0.336301 15.2 0.514348 15.2 0.7V2.8H17.3C17.4857 2.8 17.6637 2.87375 17.795 3.00503C17.9263 3.1363 18 3.31435 18 3.5C18 3.68565 17.9263 3.8637 17.795 3.99497C17.6637 4.12625 17.4857 4.2 17.3 4.2H15.2V6.3C15.2 6.48565 15.1263 6.6637 14.995 6.79498C14.8637 6.92625 14.6857 7 14.5 7C14.3143 7 14.1363 6.92625 14.005 6.79498C13.8737 6.6637 13.8 6.48565 13.8 6.3V4.2H11.7C11.5143 4.2 11.3363 4.12625 11.205 3.99497C11.0737 3.8637 11 3.68565 11 3.5C11 3.31435 11.0737 3.1363 11.205 3.00503C11.3363 2.87375 11.5143 2.8 11.7 2.8H13.8V0.7C13.8 0.514348 13.8737 0.336301 14.005 0.205025C14.1363 0.0737499 14.3143 0 14.5 0Z"/>
</g>
<defs>
<clipPath id="clip0_5_430">
<rect width="18" height="18" fill="white"/>
</clipPath>
</defs>
</svg>
